<mxfile host="app.diagrams.net" modified="2023-03-07T14:04:32.515Z" agent="5.0 (Windows NT 10.0; Win64; x64) AppleWebKit/537.36 (KHTML, like Gecko) Chrome/110.0.0.0 Safari/537.36" etag="17XWSWmh4v1m1bb5io4u" version="21.0.2" type="github">
  <diagram name="第 1 页" id="LMOrUs53wWnXZzzSdxjo">
    <mxGraphModel dx="1818" dy="1149" grid="1" gridSize="10" guides="1" tooltips="1" connect="1" arrows="1" fold="1" page="1" pageScale="1" pageWidth="827" pageHeight="1169" math="0" shadow="0">
      <root>
        <mxCell id="0" />
        <mxCell id="1" parent="0" />
        <mxCell id="SBikTrNOms9XPHG4j8-7-1" value="" style="html=1;outlineConnect=0;fillColor=#CCCCCC;strokeColor=#6881B3;gradientColor=none;gradientDirection=north;strokeWidth=2;shape=mxgraph.networks.bus;gradientColor=none;gradientDirection=north;fontColor=#ffffff;perimeter=backbonePerimeter;backboneSize=20;" vertex="1" parent="1">
          <mxGeometry x="210" y="280" width="650" height="20" as="geometry" />
        </mxCell>
        <mxCell id="SBikTrNOms9XPHG4j8-7-2" value="" style="html=1;outlineConnect=0;fillColor=#CCCCCC;strokeColor=#6881B3;gradientColor=none;gradientDirection=north;strokeWidth=2;shape=mxgraph.networks.comm_link_edge;html=1;rounded=0;" edge="1" parent="1" source="SBikTrNOms9XPHG4j8-7-7" target="SBikTrNOms9XPHG4j8-7-1">
          <mxGeometry width="100" height="100" relative="1" as="geometry">
            <mxPoint x="1010" y="540" as="sourcePoint" />
            <mxPoint x="590" y="340" as="targetPoint" />
          </mxGeometry>
        </mxCell>
        <mxCell id="SBikTrNOms9XPHG4j8-7-3" value="&lt;font color=&quot;#000000&quot; style=&quot;font-size: 14px;&quot;&gt;&lt;b&gt;企业&lt;/b&gt;&lt;/font&gt;" style="fontColor=#0066CC;verticalAlign=top;verticalLabelPosition=bottom;labelPosition=center;align=center;html=1;outlineConnect=0;fillColor=#CCCCCC;strokeColor=#6881B3;gradientColor=none;gradientDirection=north;strokeWidth=2;shape=mxgraph.networks.laptop;" vertex="1" parent="1">
          <mxGeometry x="400" y="77.5" width="100" height="55" as="geometry" />
        </mxCell>
        <mxCell id="SBikTrNOms9XPHG4j8-7-5" value="" style="fontColor=#0066CC;verticalAlign=top;verticalLabelPosition=bottom;labelPosition=center;align=center;html=1;outlineConnect=0;fillColor=#CCCCCC;strokeColor=#6881B3;gradientColor=none;gradientDirection=north;strokeWidth=2;shape=mxgraph.networks.rack;" vertex="1" parent="1">
          <mxGeometry x="30" y="540" width="50" height="100" as="geometry" />
        </mxCell>
        <mxCell id="SBikTrNOms9XPHG4j8-7-7" value="web服务器" style="verticalLabelPosition=bottom;sketch=0;aspect=fixed;html=1;verticalAlign=top;strokeColor=none;align=center;outlineConnect=0;shape=mxgraph.citrix.web_server;" vertex="1" parent="1">
          <mxGeometry x="480" y="380" width="93.5" height="110" as="geometry" />
        </mxCell>
        <mxCell id="SBikTrNOms9XPHG4j8-7-8" value="数据服务器" style="verticalLabelPosition=bottom;sketch=0;aspect=fixed;html=1;verticalAlign=top;strokeColor=none;align=center;outlineConnect=0;shape=mxgraph.citrix.database_server;" vertex="1" parent="1">
          <mxGeometry x="160" y="880" width="106.67" height="120" as="geometry" />
        </mxCell>
        <mxCell id="SBikTrNOms9XPHG4j8-7-9" value="" style="sketch=0;shadow=0;dashed=0;html=1;strokeColor=none;fillColor=#505050;labelPosition=center;verticalLabelPosition=bottom;verticalAlign=top;outlineConnect=0;align=center;shape=mxgraph.office.databases.database_server;" vertex="1" parent="1">
          <mxGeometry x="870" y="820" width="100" height="222" as="geometry" />
        </mxCell>
        <mxCell id="SBikTrNOms9XPHG4j8-7-10" value="鉴权服务器" style="verticalLabelPosition=bottom;sketch=0;aspect=fixed;html=1;verticalAlign=top;strokeColor=none;align=center;outlineConnect=0;shape=mxgraph.citrix.radius_server;" vertex="1" parent="1">
          <mxGeometry x="1010" y="930" width="75.5" height="91" as="geometry" />
        </mxCell>
        <mxCell id="SBikTrNOms9XPHG4j8-7-11" value="" style="rounded=0;whiteSpace=wrap;html=1;" vertex="1" parent="1">
          <mxGeometry x="1070" y="200" width="120" height="60" as="geometry" />
        </mxCell>
        <mxCell id="SBikTrNOms9XPHG4j8-7-12" value="&lt;b&gt;&lt;font style=&quot;font-size: 14px;&quot;&gt;退役军人&lt;/font&gt;&lt;/b&gt;" style="sketch=0;aspect=fixed;html=1;points=[];align=center;image;fontSize=12;image=img/lib/mscae/Mobile_Engagement.svg;" vertex="1" parent="1">
          <mxGeometry x="800" y="77.5" width="34" height="50" as="geometry" />
        </mxCell>
        <mxCell id="SBikTrNOms9XPHG4j8-7-13" value="&lt;b&gt;&lt;font color=&quot;#000000&quot; style=&quot;font-size: 14px;&quot;&gt;退役军人事务局&lt;/font&gt;&lt;/b&gt;" style="fontColor=#0066CC;verticalAlign=top;verticalLabelPosition=bottom;labelPosition=center;align=center;html=1;outlineConnect=0;fillColor=#CCCCCC;strokeColor=#6881B3;gradientColor=none;gradientDirection=north;strokeWidth=2;shape=mxgraph.networks.pc;" vertex="1" parent="1">
          <mxGeometry x="200" y="77.5" width="100" height="70" as="geometry" />
        </mxCell>
        <mxCell id="SBikTrNOms9XPHG4j8-7-14" value="&lt;b&gt;&lt;font color=&quot;#000000&quot; style=&quot;font-size: 14px;&quot;&gt;培训机构&lt;/font&gt;&lt;/b&gt;" style="fontColor=#0066CC;verticalAlign=top;verticalLabelPosition=bottom;labelPosition=center;align=center;html=1;outlineConnect=0;fillColor=#CCCCCC;strokeColor=#6881B3;gradientColor=none;gradientDirection=north;strokeWidth=2;shape=mxgraph.networks.laptop;" vertex="1" parent="1">
          <mxGeometry x="600" y="77.5" width="100" height="55" as="geometry" />
        </mxCell>
        <mxCell id="SBikTrNOms9XPHG4j8-7-15" value="" style="html=1;outlineConnect=0;fillColor=#CCCCCC;strokeColor=#6881B3;gradientColor=none;gradientDirection=north;strokeWidth=2;shape=mxgraph.networks.comm_link_edge;html=1;rounded=0;entryX=0.5;entryY=1;entryDx=0;entryDy=0;entryPerimeter=0;" edge="1" parent="1" source="SBikTrNOms9XPHG4j8-7-1" target="SBikTrNOms9XPHG4j8-7-13">
          <mxGeometry width="100" height="100" relative="1" as="geometry">
            <mxPoint x="360" y="440" as="sourcePoint" />
            <mxPoint x="460" y="340" as="targetPoint" />
            <Array as="points">
              <mxPoint x="250" y="220" />
            </Array>
          </mxGeometry>
        </mxCell>
        <mxCell id="SBikTrNOms9XPHG4j8-7-16" value="" style="html=1;outlineConnect=0;fillColor=#CCCCCC;strokeColor=#6881B3;gradientColor=none;gradientDirection=north;strokeWidth=2;shape=mxgraph.networks.comm_link_edge;html=1;rounded=0;entryX=0.553;entryY=1.094;entryDx=0;entryDy=0;entryPerimeter=0;" edge="1" parent="1" source="SBikTrNOms9XPHG4j8-7-1" target="SBikTrNOms9XPHG4j8-7-12">
          <mxGeometry width="100" height="100" relative="1" as="geometry">
            <mxPoint x="374" y="510" as="sourcePoint" />
            <mxPoint x="474" y="410" as="targetPoint" />
          </mxGeometry>
        </mxCell>
        <mxCell id="SBikTrNOms9XPHG4j8-7-17" value="" style="html=1;outlineConnect=0;fillColor=#CCCCCC;strokeColor=#6881B3;gradientColor=none;gradientDirection=north;strokeWidth=2;shape=mxgraph.networks.comm_link_edge;html=1;rounded=0;" edge="1" parent="1">
          <mxGeometry width="100" height="100" relative="1" as="geometry">
            <mxPoint x="920" y="685" as="sourcePoint" />
            <mxPoint x="1020" y="585" as="targetPoint" />
          </mxGeometry>
        </mxCell>
        <mxCell id="SBikTrNOms9XPHG4j8-7-18" value="" style="html=1;outlineConnect=0;fillColor=#CCCCCC;strokeColor=#6881B3;gradientColor=none;gradientDirection=north;strokeWidth=2;shape=mxgraph.networks.comm_link_edge;html=1;rounded=0;entryX=0.5;entryY=1;entryDx=0;entryDy=0;entryPerimeter=0;" edge="1" parent="1" source="SBikTrNOms9XPHG4j8-7-1" target="SBikTrNOms9XPHG4j8-7-14">
          <mxGeometry width="100" height="100" relative="1" as="geometry">
            <mxPoint x="394" y="530" as="sourcePoint" />
            <mxPoint x="494" y="430" as="targetPoint" />
          </mxGeometry>
        </mxCell>
        <mxCell id="SBikTrNOms9XPHG4j8-7-19" value="" style="html=1;outlineConnect=0;fillColor=#CCCCCC;strokeColor=#6881B3;gradientColor=none;gradientDirection=north;strokeWidth=2;shape=mxgraph.networks.comm_link_edge;html=1;rounded=0;entryX=0.5;entryY=1;entryDx=0;entryDy=0;entryPerimeter=0;" edge="1" parent="1" source="SBikTrNOms9XPHG4j8-7-1" target="SBikTrNOms9XPHG4j8-7-3">
          <mxGeometry width="100" height="100" relative="1" as="geometry">
            <mxPoint x="404" y="540" as="sourcePoint" />
            <mxPoint x="504" y="440" as="targetPoint" />
          </mxGeometry>
        </mxCell>
      </root>
    </mxGraphModel>
  </diagram>
</mxfile>
